<?xml version="1.0" standalone="no"?>
<!DOCTYPE svg PUBLIC "-//W3C//DTD SVG 20010904//EN"
 "http://www.w3.org/TR/2001/REC-SVG-20010904/DTD/svg10.dtd">
<svg version="1.0" xmlns="http://www.w3.org/2000/svg"
 width="500.000000pt" height="500.000000pt" viewBox="0 0 500.000000 500.000000"
 preserveAspectRatio="xMidYMid meet">
<metadata>
Created by potrace 1.11, written by Peter Selinger 2001-2013
</metadata>
<g transform="translate(0.000000,500.000000) scale(0.100000,-0.100000)"
fill="#000000" stroke="none">
<path d="M1159 3286 c-2 -2 -22 -6 -44 -9 -22 -3 -74 -13 -115 -22 -41 -9 -89
-19 -106 -22 -46 -8 -55 -27 -69 -154 -3 -31 -7 -65 -9 -75 -2 -11 -7 -39 -10
-64 -3 -25 -8 -58 -11 -75 -7 -41 -34 -184 -40 -215 -3 -14 -8 -41 -11 -60 -4
-19 -8 -44 -10 -55 -3 -11 -6 -33 -9 -50 -3 -16 -8 -42 -11 -57 -3 -15 -6 -30
-6 -33 0 -2 -5 -26 -12 -52 -15 -58 -8 -94 22 -109 24 -12 47 -9 162 20 125
31 140 37 149 54 9 17 20 77 21 122 1 18 14 0 47 -65 49 -97 74 -125 108 -125
12 0 66 33 120 74 l99 74 25 -36 c43 -64 82 -92 171 -122 151 -51 305 -3 449
139 66 66 112 132 130 191 3 8 5 47 5 86 1 62 -3 77 -29 120 -18 29 -50 61
-77 79 -26 17 -47 33 -47 36 -1 3 41 25 92 48 50 24 95 48 99 55 27 40 -22
151 -89 203 -60 47 -111 65 -185 68 -130 6 -257 -46 -357 -146 l-58 -58 -1 41
c-2 44 -33 113 -60 135 -58 46 -96 57 -213 60 -64 2 -118 1 -120 -1z m261
-551 c-10 -39 -19 -71 -19 -72 -3 -13 -15 -1 -37 35 -14 23 -22 42 -17 42 4 0
26 16 47 35 22 19 41 34 42 32 2 -1 -6 -34 -16 -72z m445 -146 c-18 -33 -47
-51 -69 -43 -17 7 -30 39 -21 54 8 13 65 28 87 22 16 -4 16 -7 3 -33z"/>
<path d="M2658 3005 c-2 -2 -42 -7 -88 -10 -47 -3 -96 -8 -110 -10 -14 -2 -59
-6 -100 -10 -41 -3 -82 -8 -92 -11 -19 -6 -44 -55 -52 -105 -3 -20 -10 -47
-15 -61 -6 -16 -5 -34 5 -56 13 -32 30 -38 86 -33 13 2 16 -4 13 -21 -3 -12
-7 -40 -11 -62 -3 -22 -7 -43 -9 -46 -1 -3 -6 -25 -9 -50 -3 -25 -8 -54 -10
-65 -22 -118 -19 -138 26 -154 16 -6 33 -9 37 -7 3 2 22 7 41 10 100 15 141
29 154 49 8 12 17 58 20 102 4 44 11 112 16 150 6 39 11 82 12 96 1 14 8 26
15 26 16 0 16 -3 3 -47 -49 -169 16 -331 148 -369 83 -24 211 16 271 84 l30
35 23 -33 c12 -17 28 -38 35 -45 20 -20 95 -48 138 -51 46 -3 141 29 175 59
l23 20 14 -29 c17 -35 50 -45 101 -32 20 6 66 15 102 20 137 22 141 22 165 -1
12 -12 31 -23 41 -26 28 -7 135 -7 164 -1 32 7 134 59 138 70 2 5 8 9 14 9 5
0 22 12 37 27 103 105 131 209 74 275 -13 15 -13 19 6 39 27 29 31 99 9 168
-26 84 -104 115 -201 82 -79 -27 -110 -48 -197 -132 -71 -69 -108 -124 -124
-185 -12 -46 -36 -73 -36 -39 0 22 47 227 60 261 13 34 -4 82 -33 93 -15 6
-95 -4 -152 -18 -3 0 -14 -1 -25 -1 -10 0 -28 -10 -39 -21 l-20 -22 -36 28
c-96 72 -243 55 -335 -40 l-33 -34 -49 49 c-52 52 -102 74 -170 71 -43 -1
-112 -26 -147 -53 -24 -19 -25 -19 -36 9 -11 25 -57 58 -67 48z m227 -332 c-6
-49 -28 -93 -45 -93 -22 0 -1 89 28 123 22 25 24 22 17 -30z m440 1 c-5 -66
-55 -132 -55 -73 0 26 40 119 51 119 4 0 6 -21 4 -46z"/>
</g>
</svg>
